<mxfile host="Electron" modified="2023-10-26T10:32:55.683Z" agent="Mozilla/5.0 (Windows NT 10.0; Win64; x64) AppleWebKit/537.36 (KHTML, like Gecko) draw.io/22.0.0 Chrome/114.0.5735.289 Electron/25.8.3 Safari/537.36" etag="ceizoLAXJk0Albm72zkn" version="22.0.0" type="device">
  <diagram name="Страница — 1" id="yG9EB2Kmo05U87g6Uy87">
    <mxGraphModel dx="1613" dy="1945" grid="1" gridSize="10" guides="1" tooltips="1" connect="1" arrows="1" fold="1" page="1" pageScale="1" pageWidth="827" pageHeight="1169" math="0" shadow="0">
      <root>
        <mxCell id="0" />
        <mxCell id="1" parent="0" />
        <mxCell id="sLaFmWMNMCn_ssmSn-2--8" value="&lt;br&gt;пользователь" style="shape=umlActor;verticalLabelPosition=bottom;verticalAlign=top;html=1;outlineConnect=0;" parent="1" vertex="1">
          <mxGeometry x="90" y="360" width="50" height="100" as="geometry" />
        </mxCell>
        <mxCell id="sLaFmWMNMCn_ssmSn-2--10" value="Администратор" style="shape=umlActor;verticalLabelPosition=bottom;verticalAlign=top;html=1;outlineConnect=0;" parent="1" vertex="1">
          <mxGeometry x="1410" y="130" width="50" height="100" as="geometry" />
        </mxCell>
        <mxCell id="sLaFmWMNMCn_ssmSn-2--12" value="" style="endArrow=none;html=1;rounded=0;" parent="1" target="sLaFmWMNMCn_ssmSn-2--13" edge="1">
          <mxGeometry width="50" height="50" relative="1" as="geometry">
            <mxPoint x="120" y="320" as="sourcePoint" />
            <mxPoint x="210" y="40" as="targetPoint" />
          </mxGeometry>
        </mxCell>
        <mxCell id="sLaFmWMNMCn_ssmSn-2--13" value="Найти отель" style="ellipse;whiteSpace=wrap;html=1;" parent="1" vertex="1">
          <mxGeometry x="120" y="-210" width="170" height="80" as="geometry" />
        </mxCell>
        <mxCell id="sLaFmWMNMCn_ssmSn-2--15" value="Просмотреть информацию об отеле" style="ellipse;whiteSpace=wrap;html=1;" parent="1" vertex="1">
          <mxGeometry x="300" width="180" height="80" as="geometry" />
        </mxCell>
        <mxCell id="sLaFmWMNMCn_ssmSn-2--21" value="" style="endArrow=none;html=1;rounded=0;" parent="1" target="sLaFmWMNMCn_ssmSn-2--22" edge="1">
          <mxGeometry width="50" height="50" relative="1" as="geometry">
            <mxPoint x="160" y="340" as="sourcePoint" />
            <mxPoint x="330" y="130" as="targetPoint" />
          </mxGeometry>
        </mxCell>
        <mxCell id="sLaFmWMNMCn_ssmSn-2--22" value="Зарегистрироваться" style="ellipse;whiteSpace=wrap;html=1;" parent="1" vertex="1">
          <mxGeometry x="310" y="100" width="180" height="80" as="geometry" />
        </mxCell>
        <mxCell id="sLaFmWMNMCn_ssmSn-2--23" value="" style="endArrow=none;html=1;rounded=0;" parent="1" target="sLaFmWMNMCn_ssmSn-2--24" edge="1">
          <mxGeometry width="50" height="50" relative="1" as="geometry">
            <mxPoint x="160" y="360" as="sourcePoint" />
            <mxPoint x="240" y="330" as="targetPoint" />
          </mxGeometry>
        </mxCell>
        <mxCell id="sLaFmWMNMCn_ssmSn-2--24" value="Забронировать отель" style="ellipse;whiteSpace=wrap;html=1;" parent="1" vertex="1">
          <mxGeometry x="380" y="190" width="190" height="80" as="geometry" />
        </mxCell>
        <mxCell id="sLaFmWMNMCn_ssmSn-2--25" value="" style="endArrow=none;html=1;rounded=0;" parent="1" target="sLaFmWMNMCn_ssmSn-2--26" edge="1">
          <mxGeometry width="50" height="50" relative="1" as="geometry">
            <mxPoint x="160" y="370" as="sourcePoint" />
            <mxPoint x="280" y="370" as="targetPoint" />
          </mxGeometry>
        </mxCell>
        <mxCell id="sLaFmWMNMCn_ssmSn-2--26" value="Авторизоваться" style="ellipse;whiteSpace=wrap;html=1;" parent="1" vertex="1">
          <mxGeometry x="400" y="280" width="200" height="80" as="geometry" />
        </mxCell>
        <mxCell id="sLaFmWMNMCn_ssmSn-2--27" value="" style="endArrow=none;html=1;rounded=0;" parent="1" target="sLaFmWMNMCn_ssmSn-2--28" edge="1">
          <mxGeometry width="50" height="50" relative="1" as="geometry">
            <mxPoint x="160" y="390" as="sourcePoint" />
            <mxPoint x="290" y="440" as="targetPoint" />
          </mxGeometry>
        </mxCell>
        <mxCell id="sLaFmWMNMCn_ssmSn-2--28" value="Сохранить предпочтения" style="ellipse;whiteSpace=wrap;html=1;" parent="1" vertex="1">
          <mxGeometry x="430" y="370" width="200" height="80" as="geometry" />
        </mxCell>
        <mxCell id="sLaFmWMNMCn_ssmSn-2--29" value="" style="endArrow=none;html=1;rounded=0;" parent="1" target="sLaFmWMNMCn_ssmSn-2--30" edge="1">
          <mxGeometry width="50" height="50" relative="1" as="geometry">
            <mxPoint x="160" y="410" as="sourcePoint" />
            <mxPoint x="320" y="530" as="targetPoint" />
          </mxGeometry>
        </mxCell>
        <mxCell id="sLaFmWMNMCn_ssmSn-2--30" value="Оставить отзыв" style="ellipse;whiteSpace=wrap;html=1;" parent="1" vertex="1">
          <mxGeometry x="440" y="460" width="190" height="80" as="geometry" />
        </mxCell>
        <mxCell id="sLaFmWMNMCn_ssmSn-2--31" value="" style="endArrow=none;html=1;rounded=0;" parent="1" target="sLaFmWMNMCn_ssmSn-2--32" edge="1">
          <mxGeometry width="50" height="50" relative="1" as="geometry">
            <mxPoint x="160" y="430" as="sourcePoint" />
            <mxPoint x="410" y="570" as="targetPoint" />
          </mxGeometry>
        </mxCell>
        <mxCell id="sLaFmWMNMCn_ssmSn-2--32" value="Изменить данные профиля" style="ellipse;whiteSpace=wrap;html=1;" parent="1" vertex="1">
          <mxGeometry x="430" y="550" width="190" height="80" as="geometry" />
        </mxCell>
        <mxCell id="sLaFmWMNMCn_ssmSn-2--33" value="" style="endArrow=none;html=1;rounded=0;" parent="1" target="sLaFmWMNMCn_ssmSn-2--34" edge="1">
          <mxGeometry width="50" height="50" relative="1" as="geometry">
            <mxPoint x="160" y="450" as="sourcePoint" />
            <mxPoint x="350" y="620" as="targetPoint" />
          </mxGeometry>
        </mxCell>
        <mxCell id="sLaFmWMNMCn_ssmSn-2--34" value="Посмотреть историю бронирования" style="ellipse;whiteSpace=wrap;html=1;" parent="1" vertex="1">
          <mxGeometry x="380" y="640" width="210" height="80" as="geometry" />
        </mxCell>
        <mxCell id="sLaFmWMNMCn_ssmSn-2--37" value="Просмотреть отзывы" style="ellipse;whiteSpace=wrap;html=1;" parent="1" vertex="1">
          <mxGeometry x="570" y="-150" width="190" height="80" as="geometry" />
        </mxCell>
        <mxCell id="sLaFmWMNMCn_ssmSn-2--42" value="&quot;extend&quot;" style="endArrow=open;endSize=12;dashed=1;html=1;rounded=0;exitX=0;exitY=0.5;exitDx=0;exitDy=0;" parent="1" source="sLaFmWMNMCn_ssmSn-2--37" target="sLaFmWMNMCn_ssmSn-2--15" edge="1">
          <mxGeometry width="160" relative="1" as="geometry">
            <mxPoint x="560" y="-80.38" as="sourcePoint" />
            <mxPoint x="720" y="-80.38" as="targetPoint" />
          </mxGeometry>
        </mxCell>
        <mxCell id="sLaFmWMNMCn_ssmSn-2--43" value="&quot;include&quot;" style="html=1;verticalAlign=bottom;endArrow=open;dashed=1;endSize=8;curved=0;rounded=0;exitX=1;exitY=0;exitDx=0;exitDy=0;" parent="1" source="sLaFmWMNMCn_ssmSn-2--24" target="sLaFmWMNMCn_ssmSn-2--44" edge="1">
          <mxGeometry relative="1" as="geometry">
            <mxPoint x="565" y="229.55" as="sourcePoint" />
            <mxPoint x="640" y="160" as="targetPoint" />
          </mxGeometry>
        </mxCell>
        <mxCell id="sLaFmWMNMCn_ssmSn-2--44" value="Получить предложение альтернативных отелей" style="ellipse;whiteSpace=wrap;html=1;" parent="1" vertex="1">
          <mxGeometry x="610" y="10" width="170" height="80" as="geometry" />
        </mxCell>
        <mxCell id="sLaFmWMNMCn_ssmSn-2--45" value="&quot;include&quot;" style="html=1;verticalAlign=bottom;endArrow=open;dashed=1;endSize=8;curved=0;rounded=0;exitX=1;exitY=0;exitDx=0;exitDy=0;" parent="1" target="sLaFmWMNMCn_ssmSn-2--46" edge="1">
          <mxGeometry relative="1" as="geometry">
            <mxPoint x="590" y="302" as="sourcePoint" />
            <mxPoint x="718" y="230" as="targetPoint" />
          </mxGeometry>
        </mxCell>
        <mxCell id="sLaFmWMNMCn_ssmSn-2--46" value="Проверить учетные данные пользователя" style="ellipse;whiteSpace=wrap;html=1;" parent="1" vertex="1">
          <mxGeometry x="720" y="260" width="182" height="80" as="geometry" />
        </mxCell>
        <mxCell id="sLaFmWMNMCn_ssmSn-2--47" value="&quot;extend&quot;" style="endArrow=open;endSize=12;dashed=1;html=1;rounded=0;exitX=0;exitY=0.5;exitDx=0;exitDy=0;entryX=1;entryY=1;entryDx=0;entryDy=0;" parent="1" source="sLaFmWMNMCn_ssmSn-2--49" target="sLaFmWMNMCn_ssmSn-2--26" edge="1">
          <mxGeometry width="160" relative="1" as="geometry">
            <mxPoint x="740" y="330" as="sourcePoint" />
            <mxPoint x="600" y="316.38" as="targetPoint" />
          </mxGeometry>
        </mxCell>
        <mxCell id="sLaFmWMNMCn_ssmSn-2--49" value="Восстановить пароль" style="ellipse;whiteSpace=wrap;html=1;" parent="1" vertex="1">
          <mxGeometry x="730" y="350" width="180" height="80" as="geometry" />
        </mxCell>
        <mxCell id="sLaFmWMNMCn_ssmSn-2--50" value="&quot;extend&quot;" style="endArrow=open;endSize=12;dashed=1;html=1;rounded=0;entryX=1;entryY=0.5;entryDx=0;entryDy=0;exitX=0;exitY=0.5;exitDx=0;exitDy=0;" parent="1" source="sLaFmWMNMCn_ssmSn-2--51" target="sLaFmWMNMCn_ssmSn-2--24" edge="1">
          <mxGeometry width="160" relative="1" as="geometry">
            <mxPoint x="720" y="190" as="sourcePoint" />
            <mxPoint x="570" y="216.38" as="targetPoint" />
          </mxGeometry>
        </mxCell>
        <mxCell id="sLaFmWMNMCn_ssmSn-2--51" value="Подтверждение бронирования" style="ellipse;whiteSpace=wrap;html=1;" parent="1" vertex="1">
          <mxGeometry x="730" y="80" width="160" height="80" as="geometry" />
        </mxCell>
        <mxCell id="sLaFmWMNMCn_ssmSn-2--52" value="&quot;extend&quot;" style="endArrow=open;endSize=12;dashed=1;html=1;rounded=0;entryX=1;entryY=0.5;entryDx=0;entryDy=0;exitX=0;exitY=0.5;exitDx=0;exitDy=0;" parent="1" source="sLaFmWMNMCn_ssmSn-2--53" edge="1">
          <mxGeometry width="160" relative="1" as="geometry">
            <mxPoint x="730" y="220" as="sourcePoint" />
            <mxPoint x="560" y="250" as="targetPoint" />
          </mxGeometry>
        </mxCell>
        <mxCell id="sLaFmWMNMCn_ssmSn-2--53" value="Отменить бронь" style="ellipse;whiteSpace=wrap;html=1;" parent="1" vertex="1">
          <mxGeometry x="740" y="170" width="180" height="80" as="geometry" />
        </mxCell>
        <mxCell id="sLaFmWMNMCn_ssmSn-2--55" value="Посмотреть акции и специальные предложения" style="ellipse;whiteSpace=wrap;html=1;" parent="1" vertex="1">
          <mxGeometry x="260" y="-120" width="190" height="80" as="geometry" />
        </mxCell>
        <mxCell id="sLaFmWMNMCn_ssmSn-2--57" value="" style="endArrow=none;html=1;rounded=0;" parent="1" target="sLaFmWMNMCn_ssmSn-2--59" edge="1">
          <mxGeometry width="50" height="50" relative="1" as="geometry">
            <mxPoint x="1400" y="150" as="sourcePoint" />
            <mxPoint x="1306.717988226486" y="56.71798822648634" as="targetPoint" />
          </mxGeometry>
        </mxCell>
        <mxCell id="sLaFmWMNMCn_ssmSn-2--59" value="Управление отелями" style="ellipse;whiteSpace=wrap;html=1;" parent="1" vertex="1">
          <mxGeometry x="1140" y="-30" width="166.72" height="80" as="geometry" />
        </mxCell>
        <mxCell id="sLaFmWMNMCn_ssmSn-2--60" value="" style="endArrow=none;html=1;rounded=0;" parent="1" target="sLaFmWMNMCn_ssmSn-2--61" edge="1">
          <mxGeometry width="50" height="50" relative="1" as="geometry">
            <mxPoint x="1400" y="170" as="sourcePoint" />
            <mxPoint x="1270" y="40" as="targetPoint" />
          </mxGeometry>
        </mxCell>
        <mxCell id="sLaFmWMNMCn_ssmSn-2--61" value="Управление пользователями" style="ellipse;whiteSpace=wrap;html=1;" parent="1" vertex="1">
          <mxGeometry x="1050" y="60" width="180" height="80" as="geometry" />
        </mxCell>
        <mxCell id="sLaFmWMNMCn_ssmSn-2--62" value="" style="endArrow=none;html=1;rounded=0;" parent="1" target="sLaFmWMNMCn_ssmSn-2--63" edge="1">
          <mxGeometry width="50" height="50" relative="1" as="geometry">
            <mxPoint x="1400" y="190" as="sourcePoint" />
            <mxPoint x="1165" y="200" as="targetPoint" />
          </mxGeometry>
        </mxCell>
        <mxCell id="sLaFmWMNMCn_ssmSn-2--63" value="Модерация отзывов" style="ellipse;whiteSpace=wrap;html=1;" parent="1" vertex="1">
          <mxGeometry x="1035" y="150" width="175" height="80" as="geometry" />
        </mxCell>
        <mxCell id="sLaFmWMNMCn_ssmSn-2--64" value="" style="endArrow=none;html=1;rounded=0;" parent="1" target="sLaFmWMNMCn_ssmSn-2--65" edge="1">
          <mxGeometry width="50" height="50" relative="1" as="geometry">
            <mxPoint x="1400" y="210" as="sourcePoint" />
            <mxPoint x="1370" y="240" as="targetPoint" />
            <Array as="points" />
          </mxGeometry>
        </mxCell>
        <mxCell id="sLaFmWMNMCn_ssmSn-2--65" value="Создание акций и спецпредложений" style="ellipse;whiteSpace=wrap;html=1;" parent="1" vertex="1">
          <mxGeometry x="1050" y="240" width="175" height="80" as="geometry" />
        </mxCell>
        <mxCell id="sLaFmWMNMCn_ssmSn-2--66" value="&quot;include&quot;" style="html=1;verticalAlign=bottom;endArrow=open;dashed=1;endSize=8;curved=0;rounded=0;" parent="1" source="sLaFmWMNMCn_ssmSn-2--13" target="sLaFmWMNMCn_ssmSn-2--67" edge="1">
          <mxGeometry relative="1" as="geometry">
            <mxPoint x="332" y="-100" as="sourcePoint" />
            <mxPoint x="448" y="-216" as="targetPoint" />
          </mxGeometry>
        </mxCell>
        <mxCell id="sLaFmWMNMCn_ssmSn-2--67" value="Поиск по фильтрам" style="ellipse;whiteSpace=wrap;html=1;" parent="1" vertex="1">
          <mxGeometry x="408" y="-320" width="182" height="80" as="geometry" />
        </mxCell>
        <mxCell id="sLaFmWMNMCn_ssmSn-2--68" value="&quot;include&quot;" style="html=1;verticalAlign=bottom;endArrow=open;dashed=1;endSize=8;curved=0;rounded=0;exitX=0;exitY=0;exitDx=0;exitDy=0;" parent="1" source="sLaFmWMNMCn_ssmSn-2--59" target="sLaFmWMNMCn_ssmSn-2--69" edge="1">
          <mxGeometry relative="1" as="geometry">
            <mxPoint x="902" y="-30" as="sourcePoint" />
            <mxPoint x="1040" y="-70" as="targetPoint" />
          </mxGeometry>
        </mxCell>
        <mxCell id="sLaFmWMNMCn_ssmSn-2--69" value="Добавить информацию об отеле" style="ellipse;whiteSpace=wrap;html=1;" parent="1" vertex="1">
          <mxGeometry x="890" y="-130" width="200" height="80" as="geometry" />
        </mxCell>
        <mxCell id="sLaFmWMNMCn_ssmSn-2--70" value="&quot;include&quot;" style="html=1;verticalAlign=bottom;endArrow=open;dashed=1;endSize=8;curved=0;rounded=0;exitX=0;exitY=0;exitDx=0;exitDy=0;" parent="1" target="sLaFmWMNMCn_ssmSn-2--72" edge="1">
          <mxGeometry relative="1" as="geometry">
            <mxPoint x="1062.52" y="80" as="sourcePoint" />
            <mxPoint x="990" y="40" as="targetPoint" />
          </mxGeometry>
        </mxCell>
        <mxCell id="sLaFmWMNMCn_ssmSn-2--72" value="Блокировка пользователя" style="ellipse;whiteSpace=wrap;html=1;" parent="1" vertex="1">
          <mxGeometry x="827" y="-40" width="180" height="80" as="geometry" />
        </mxCell>
        <mxCell id="sLaFmWMNMCn_ssmSn-2--73" value="&quot;include&quot;" style="html=1;verticalAlign=bottom;endArrow=open;dashed=1;endSize=8;curved=0;rounded=0;entryX=0.552;entryY=1.022;entryDx=0;entryDy=0;entryPerimeter=0;exitX=0;exitY=0.5;exitDx=0;exitDy=0;" parent="1" source="sLaFmWMNMCn_ssmSn-2--63" target="sLaFmWMNMCn_ssmSn-2--37" edge="1">
          <mxGeometry relative="1" as="geometry">
            <mxPoint x="1020" y="200" as="sourcePoint" />
            <mxPoint x="1254.9999999999945" y="350" as="targetPoint" />
          </mxGeometry>
        </mxCell>
        <mxCell id="FwpNRC4OTLisJZJ5gZLe-1" value="" style="endArrow=none;html=1;rounded=0;entryX=0;entryY=1;entryDx=0;entryDy=0;" parent="1" target="sLaFmWMNMCn_ssmSn-2--55" edge="1">
          <mxGeometry width="50" height="50" relative="1" as="geometry">
            <mxPoint x="140" y="320" as="sourcePoint" />
            <mxPoint x="250" y="-50" as="targetPoint" />
          </mxGeometry>
        </mxCell>
        <mxCell id="FwpNRC4OTLisJZJ5gZLe-2" value="Изменить информацию об отеле" style="ellipse;whiteSpace=wrap;html=1;" parent="1" vertex="1">
          <mxGeometry x="1190" y="-260" width="200" height="80" as="geometry" />
        </mxCell>
        <mxCell id="FwpNRC4OTLisJZJ5gZLe-3" value="Удалить информацию об отеле" style="ellipse;whiteSpace=wrap;html=1;" parent="1" vertex="1">
          <mxGeometry x="1022.5" y="-200" width="200" height="80" as="geometry" />
        </mxCell>
        <mxCell id="FwpNRC4OTLisJZJ5gZLe-4" value="&quot;include&quot;" style="html=1;verticalAlign=bottom;endArrow=open;dashed=1;endSize=8;curved=0;rounded=0;exitX=0.542;exitY=-0.032;exitDx=0;exitDy=0;entryX=0.5;entryY=1;entryDx=0;entryDy=0;exitPerimeter=0;" parent="1" source="sLaFmWMNMCn_ssmSn-2--59" target="FwpNRC4OTLisJZJ5gZLe-3" edge="1">
          <mxGeometry relative="1" as="geometry">
            <mxPoint x="1230" y="-30" as="sourcePoint" />
            <mxPoint x="1125" y="-73" as="targetPoint" />
          </mxGeometry>
        </mxCell>
        <mxCell id="FwpNRC4OTLisJZJ5gZLe-5" value="&quot;include&quot;" style="html=1;verticalAlign=bottom;endArrow=open;dashed=1;endSize=8;curved=0;rounded=0;exitX=1;exitY=0;exitDx=0;exitDy=0;" parent="1" source="sLaFmWMNMCn_ssmSn-2--59" target="FwpNRC4OTLisJZJ5gZLe-2" edge="1">
          <mxGeometry relative="1" as="geometry">
            <mxPoint x="1295" y="-7" as="sourcePoint" />
            <mxPoint x="1190" y="-50" as="targetPoint" />
          </mxGeometry>
        </mxCell>
        <mxCell id="FwpNRC4OTLisJZJ5gZLe-6" value="Загрузить фото комнаты" style="ellipse;whiteSpace=wrap;html=1;" parent="1" vertex="1">
          <mxGeometry x="730" y="440" width="180" height="80" as="geometry" />
        </mxCell>
        <mxCell id="FwpNRC4OTLisJZJ5gZLe-7" value="&quot;extend&quot;" style="endArrow=open;endSize=12;dashed=1;html=1;rounded=0;exitX=0;exitY=0.5;exitDx=0;exitDy=0;entryX=1;entryY=0.5;entryDx=0;entryDy=0;" parent="1" source="FwpNRC4OTLisJZJ5gZLe-6" target="sLaFmWMNMCn_ssmSn-2--30" edge="1">
          <mxGeometry width="160" relative="1" as="geometry">
            <mxPoint x="700" y="521" as="sourcePoint" />
            <mxPoint x="650" y="490" as="targetPoint" />
          </mxGeometry>
        </mxCell>
        <mxCell id="FwpNRC4OTLisJZJ5gZLe-8" value="Изменить номер телефона" style="ellipse;whiteSpace=wrap;html=1;" parent="1" vertex="1">
          <mxGeometry x="680" y="620" width="180" height="80" as="geometry" />
        </mxCell>
        <mxCell id="FwpNRC4OTLisJZJ5gZLe-9" value="Изменить пароль" style="ellipse;whiteSpace=wrap;html=1;" parent="1" vertex="1">
          <mxGeometry x="720" y="530" width="180" height="80" as="geometry" />
        </mxCell>
        <mxCell id="FwpNRC4OTLisJZJ5gZLe-10" value="&quot;extend&quot;" style="endArrow=open;endSize=12;dashed=1;html=1;rounded=0;entryX=1;entryY=0.5;entryDx=0;entryDy=0;exitX=0;exitY=0.5;exitDx=0;exitDy=0;" parent="1" source="FwpNRC4OTLisJZJ5gZLe-9" edge="1">
          <mxGeometry width="160" relative="1" as="geometry">
            <mxPoint x="670" y="600" as="sourcePoint" />
            <mxPoint x="620" y="585" as="targetPoint" />
          </mxGeometry>
        </mxCell>
        <mxCell id="FwpNRC4OTLisJZJ5gZLe-11" value="&quot;extend&quot;" style="endArrow=open;endSize=12;dashed=1;html=1;rounded=0;exitX=0;exitY=0.5;exitDx=0;exitDy=0;entryX=1;entryY=1;entryDx=0;entryDy=0;" parent="1" source="FwpNRC4OTLisJZJ5gZLe-8" target="sLaFmWMNMCn_ssmSn-2--32" edge="1">
          <mxGeometry width="160" relative="1" as="geometry">
            <mxPoint x="720" y="600" as="sourcePoint" />
            <mxPoint x="620" y="620" as="targetPoint" />
          </mxGeometry>
        </mxCell>
        <mxCell id="FwpNRC4OTLisJZJ5gZLe-13" value="Посмотреть историю за определенный период" style="ellipse;whiteSpace=wrap;html=1;" parent="1" vertex="1">
          <mxGeometry x="650" y="710" width="180" height="80" as="geometry" />
        </mxCell>
        <mxCell id="FwpNRC4OTLisJZJ5gZLe-14" value="&quot;include&quot;" style="html=1;verticalAlign=bottom;endArrow=open;dashed=1;endSize=8;curved=0;rounded=0;exitX=1;exitY=1;exitDx=0;exitDy=0;entryX=0;entryY=0.5;entryDx=0;entryDy=0;" parent="1" source="sLaFmWMNMCn_ssmSn-2--34" target="FwpNRC4OTLisJZJ5gZLe-13" edge="1">
          <mxGeometry relative="1" as="geometry">
            <mxPoint x="440" y="731" as="sourcePoint" />
            <mxPoint x="570" y="730" as="targetPoint" />
          </mxGeometry>
        </mxCell>
        <mxCell id="kbD5N43D3xbWwwgFl7N3-1" value="" style="endArrow=none;html=1;rounded=0;entryX=0;entryY=1;entryDx=0;entryDy=0;" edge="1" parent="1" target="sLaFmWMNMCn_ssmSn-2--15">
          <mxGeometry width="50" height="50" relative="1" as="geometry">
            <mxPoint x="150" y="330" as="sourcePoint" />
            <mxPoint x="310" y="75" as="targetPoint" />
          </mxGeometry>
        </mxCell>
      </root>
    </mxGraphModel>
  </diagram>
</mxfile>
